<?xml version="1.0" standalone="no"?>
<!DOCTYPE svg PUBLIC "-//W3C//DTD SVG 20010904//EN"
 "http://www.w3.org/TR/2001/REC-SVG-20010904/DTD/svg10.dtd">
<svg version="1.0" xmlns="http://www.w3.org/2000/svg"
 width="349.000000pt" height="349.000000pt" viewBox="0 0 349.000000 349.000000"
 preserveAspectRatio="xMidYMid meet">
<metadata>
Created by potrace 1.11, written by Peter Selinger 2001-2013
</metadata>
<g transform="translate(0.000000,349.000000) scale(0.100000,-0.100000)"
fill="#000000" stroke="none">
<path d="M2900 2540 c-19 -4 -48 -13 -65 -20 -20 -8 -75 -12 -163 -11 -146 1
-235 -14 -331 -56 -82 -36 -165 -92 -187 -127 -29 -45 -147 -331 -194 -471
-23 -70 -40 -138 -40 -165 0 -38 22 -91 126 -310 69 -146 135 -289 147 -317
l22 -53 68 0 c38 0 155 16 260 35 106 19 297 51 425 71 210 33 234 39 241 58
5 12 34 164 66 338 57 309 58 318 40 338 -27 30 -37 25 -68 -34 -32 -60 -86
-128 -185 -230 -62 -64 -80 -75 -262 -163 -107 -52 -205 -99 -216 -103 -19 -7
-32 4 -100 88 -150 183 -159 199 -158 267 1 68 54 220 152 437 l57 128 53 20
c29 11 62 20 74 20 25 0 186 -89 308 -170 136 -91 119 -99 230 113 101 194
147 294 138 302 -20 20 -360 32 -438 15z"/>
<path d="M1632 2520 c-232 -19 -233 -19 -248 -84 -11 -52 -104 -258 -157 -351
-64 -113 -189 -295 -202 -295 -16 1 -100 119 -149 210 -59 112 -85 220 -93
388 l-6 132 -127 0 c-109 0 -377 -28 -432 -46 -10 -3 -18 -15 -18 -27 0 -12
-11 -227 -25 -477 -25 -474 -33 -538 -97 -832 -17 -81 -29 -151 -25 -155 4 -3
64 10 134 30 71 20 181 46 246 58 105 19 118 24 123 44 3 13 -4 144 -15 292
-21 271 -26 409 -15 451 20 71 100 -27 173 -210 61 -154 101 -369 101 -541 0
-58 4 -108 8 -111 11 -6 135 11 185 26 21 6 57 28 81 49 39 34 44 45 60 121
17 80 143 419 173 464 13 21 131 104 146 104 11 0 8 -77 -8 -209 -18 -145 -43
-261 -89 -417 -18 -61 -31 -117 -27 -122 4 -8 69 -5 206 9 266 26 258 24 278
58 15 26 17 73 17 485 0 506 3 541 66 806 40 166 39 171 -21 169 -16 -1 -126
-9 -243 -19z"/>
</g>
</svg>
